<svg id="Capa_1" data-name="Capa 1" xmlns="http://www.w3.org/2000/svg" width="30" height="30" viewBox="0 0 30 30"><defs><style>.cls-1{fill:#fff;}.cls-2{fill:gray;}</style></defs><title>7</title><circle class="cls-1" cx="15" cy="15" r="15"/><path class="cls-2" d="M10.79,21.78a.75.75,0,0,0,.74.72h6.93a.75.75,0,0,0,.74-.72l.5-10.62H10.3Zm5.78-8a.3.3,0,0,1,.3-.31h.48a.3.3,0,0,1,.3.31v6.07a.3.3,0,0,1-.3.31h-.48a.3.3,0,0,1-.3-.31Zm-2.11,0a.3.3,0,0,1,.3-.31h.48a.3.3,0,0,1,.3.31v6.07a.3.3,0,0,1-.3.31h-.48a.3.3,0,0,1-.3-.31V13.79Zm-2.11,0a.3.3,0,0,1,.3-.31h.48a.3.3,0,0,1,.3.31v6.07a.3.3,0,0,1-.3.31h-.48a.3.3,0,0,1-.3-.31Z"/><path class="cls-2" d="M20,8.27h-3.2V7.66a.16.16,0,0,0-.16-.16H13.32a.16.16,0,0,0-.16.16v.61H10a.47.47,0,0,0-.47.47v1.49h11V8.75A.47.47,0,0,0,20,8.27Z"/></svg>