<svg id="Слой_1" data-name="Слой 1" xmlns="http://www.w3.org/2000/svg" width="24" height="24" viewBox="0 0 24 24"><defs><style>.cls-1{fill:#757575;}</style></defs><title>user-01</title><path class="cls-1" d="M17.09,15.44l-2.7-1.27A0.7,0.7,0,0,1,14,13.53v-0.9l0.2-.25A6,6,0,0,0,15,10.83a1.06,1.06,0,0,0,.66-1V8.8a1,1,0,0,0-.28-0.7V6.68a2.3,2.3,0,0,0-.59-1.74A3.68,3.68,0,0,0,12,4a3.68,3.68,0,0,0-2.8.94,2.3,2.3,0,0,0-.59,1.74V8.1a1,1,0,0,0-.28.7V9.87a1,1,0,0,0,.42.83,5.48,5.48,0,0,0,1,1.93v0.88a0.7,0.7,0,0,1-.39.62l-2.52,1.3A2.39,2.39,0,0,0,5.5,17.54V18.4C5.5,19.67,9.75,20,12,20s6.5-.33,6.5-1.6V17.59A2.38,2.38,0,0,0,17.09,15.44Z"/></svg>